<mxfile host="app.diagrams.net" agent="Mozilla/5.0 (Windows NT 10.0; Win64; x64) AppleWebKit/537.36 (KHTML, like Gecko) Chrome/130.0.0.0 Safari/537.36 Edg/130.0.0.0" version="24.8.3">
  <diagram id="icW2JwHxA_xLOt9uTunf" name="Circle">
    <mxGraphModel grid="1" page="1" gridSize="10" guides="1" tooltips="1" connect="1" arrows="1" fold="1" pageScale="1" pageWidth="850" pageHeight="1100" math="0" shadow="0">
      <root>
        <mxCell id="0" />
        <mxCell id="1" parent="0" />
        <mxCell id="iCZJJaEn_B_Bw3TxacVW-1" value="DigitExtractor.java" style="swimlane;fontStyle=1;align=center;verticalAlign=top;childLayout=stackLayout;horizontal=1;startSize=26;horizontalStack=0;resizeParent=1;resizeParentMax=0;resizeLast=0;collapsible=1;marginBottom=0;" vertex="1" parent="1">
          <mxGeometry x="80" y="70" width="310" height="450" as="geometry" />
        </mxCell>
        <mxCell id="iCZJJaEn_B_Bw3TxacVW-2" value="+ prices: double&#xa;+ fats: double&#xa;+ carbs: double&#xa;+ fibers: double&#xa;+ total: double&#xa;&#xa;" style="text;strokeColor=none;fillColor=none;align=left;verticalAlign=top;spacingLeft=4;spacingRight=4;overflow=hidden;rotatable=0;points=[[0,0.5],[1,0.5]];portConstraint=eastwest;" vertex="1" parent="iCZJJaEn_B_Bw3TxacVW-1">
          <mxGeometry y="26" width="310" height="84" as="geometry" />
        </mxCell>
        <mxCell id="iCZJJaEn_B_Bw3TxacVW-3" value="" style="line;strokeWidth=1;fillColor=none;align=left;verticalAlign=middle;spacingTop=-1;spacingLeft=3;spacingRight=3;rotatable=0;labelPosition=right;points=[];portConstraint=eastwest;strokeColor=inherit;" vertex="1" parent="iCZJJaEn_B_Bw3TxacVW-1">
          <mxGeometry y="110" width="310" height="8" as="geometry" />
        </mxCell>
        <mxCell id="iCZJJaEn_B_Bw3TxacVW-4" value="+ LunchOrder(): constructor&#xa;+ LunchOrder(double price 2, double fat2, double carb2, &#xa;double fiber2): overloading constructor&#xa;+ LunchOrder(double totalAmt): overloading constructor&#xa;+ getPrice(): double &#xa;+ getFat(): double &#xa;+ getCarb(): double &#xa;+ getFiber(): double &#xa;+ getTotal(): double &#xa;+ setPrice(double price2): void&#xa;+ setFat(double fat2): void&#xa;+ setCarb(double carb2): void&#xa;+ setFiber(double fiber2): void&#xa;+ setTotal(double totalAmt): void&#xa;+ burgers(): string&#xa;+ salads(): string&#xa;+ fries(): string&#xa;+ sodas(): string&#xa;+ burgerCost(int burgerAmt, double price): void&#xa;+ saladCost(int saladAmt, double price): void&#xa;+ fryCost(int fryAmt, double price): void&#xa;+ sodaCost(int sodaAmt, double price): void&#xa;+ total(): string&#xa;&#xa;" style="text;strokeColor=none;fillColor=none;align=left;verticalAlign=top;spacingLeft=4;spacingRight=4;overflow=hidden;rotatable=0;points=[[0,0.5],[1,0.5]];portConstraint=eastwest;" vertex="1" parent="iCZJJaEn_B_Bw3TxacVW-1">
          <mxGeometry y="118" width="310" height="332" as="geometry" />
        </mxCell>
        <mxCell id="iCZJJaEn_B_Bw3TxacVW-5" value="&lt;p style=&quot;text-align: center; margin: 4px 0px 0px;&quot;&gt;&lt;span style=&quot;background-color: initial; text-align: left;&quot;&gt;&lt;b&gt;&lt;i&gt;DigitExtractor&lt;/i&gt;&lt;/b&gt;&lt;/span&gt;&lt;i&gt;&lt;b&gt;.java&lt;/b&gt;&lt;/i&gt;&lt;/p&gt;&lt;hr size=&quot;1&quot;&gt;&lt;p style=&quot;margin:0px;margin-left:4px;&quot;&gt;&lt;/p&gt;&lt;p style=&quot;margin:0px;margin-left:4px;&quot;&gt;+ main()&lt;/p&gt;&lt;p style=&quot;margin:0px;margin-left:4px;&quot;&gt;&lt;br&gt;&lt;/p&gt;" style="verticalAlign=top;align=left;overflow=fill;fontSize=12;fontFamily=Helvetica;html=1;" vertex="1" parent="1">
          <mxGeometry x="480" y="70" width="230" height="490" as="geometry" />
        </mxCell>
        <mxCell id="iCZJJaEn_B_Bw3TxacVW-6" value="" style="endArrow=block;dashed=1;endFill=0;endSize=12;html=1;rounded=0;" edge="1" parent="1">
          <mxGeometry width="160" relative="1" as="geometry">
            <mxPoint x="390" y="180" as="sourcePoint" />
            <mxPoint x="480" y="180" as="targetPoint" />
          </mxGeometry>
        </mxCell>
        <mxCell id="_wTDuiEzZd-iS8y0KCAg-1" value="price: 1.85&lt;div&gt;fat: 9&lt;/div&gt;&lt;div&gt;carb: 33&lt;/div&gt;&lt;div&gt;fiber: 1&lt;/div&gt;" style="rounded=0;whiteSpace=wrap;html=1;" vertex="1" parent="1">
          <mxGeometry x="550" y="215" width="120" height="60" as="geometry" />
        </mxCell>
        <mxCell id="_wTDuiEzZd-iS8y0KCAg-3" value="burgerInfo" style="text;html=1;align=center;verticalAlign=middle;whiteSpace=wrap;rounded=0;" vertex="1" parent="1">
          <mxGeometry x="490" y="230" width="60" height="30" as="geometry" />
        </mxCell>
        <mxCell id="vBgVVWuRR9eEU9MsX-hY-1" value="price: 2&lt;div&gt;fat: 1&lt;/div&gt;&lt;div&gt;carb: 11&lt;/div&gt;&lt;div&gt;fiber: 5&lt;/div&gt;" style="rounded=0;whiteSpace=wrap;html=1;" vertex="1" parent="1">
          <mxGeometry x="550" y="300" width="120" height="60" as="geometry" />
        </mxCell>
        <mxCell id="vBgVVWuRR9eEU9MsX-hY-2" value="total: 0" style="rounded=0;whiteSpace=wrap;html=1;" vertex="1" parent="1">
          <mxGeometry x="550" y="130" width="120" height="60" as="geometry" />
        </mxCell>
        <mxCell id="vBgVVWuRR9eEU9MsX-hY-3" value="totalAmt" style="text;html=1;align=center;verticalAlign=middle;whiteSpace=wrap;rounded=0;" vertex="1" parent="1">
          <mxGeometry x="490" y="145" width="60" height="30" as="geometry" />
        </mxCell>
        <mxCell id="vBgVVWuRR9eEU9MsX-hY-4" value="saladInfo" style="text;html=1;align=center;verticalAlign=middle;whiteSpace=wrap;rounded=0;" vertex="1" parent="1">
          <mxGeometry x="490" y="315" width="60" height="30" as="geometry" />
        </mxCell>
        <mxCell id="vBgVVWuRR9eEU9MsX-hY-5" value="price: 1.3&lt;div&gt;fat: 11&lt;/div&gt;&lt;div&gt;carb: 36&lt;/div&gt;&lt;div&gt;fiber: 4&lt;/div&gt;" style="rounded=0;whiteSpace=wrap;html=1;" vertex="1" parent="1">
          <mxGeometry x="550" y="380" width="120" height="60" as="geometry" />
        </mxCell>
        <mxCell id="vBgVVWuRR9eEU9MsX-hY-6" value="friesInfo" style="text;html=1;align=center;verticalAlign=middle;whiteSpace=wrap;rounded=0;" vertex="1" parent="1">
          <mxGeometry x="490" y="395" width="60" height="30" as="geometry" />
        </mxCell>
        <mxCell id="vBgVVWuRR9eEU9MsX-hY-7" value="price: 0.95&lt;div&gt;fat: 0&lt;/div&gt;&lt;div&gt;carb: 38&lt;/div&gt;&lt;div&gt;fiber: 0&lt;/div&gt;" style="rounded=0;whiteSpace=wrap;html=1;" vertex="1" parent="1">
          <mxGeometry x="550" y="470" width="120" height="60" as="geometry" />
        </mxCell>
        <mxCell id="vBgVVWuRR9eEU9MsX-hY-8" value="sodaInfo" style="text;html=1;align=center;verticalAlign=middle;whiteSpace=wrap;rounded=0;" vertex="1" parent="1">
          <mxGeometry x="490" y="485" width="60" height="30" as="geometry" />
        </mxCell>
      </root>
    </mxGraphModel>
  </diagram>
</mxfile>
